<svg width="1802" height="862" viewBox="0 0 1802 862" fill="none" xmlns="http://www.w3.org/2000/svg">
<g style="mix-blend-mode:soft-light" opacity="0.7">
<path d="M-50.0359 0.844727H-93.0852V63.6603M-50.0359 0.844727V63.6603M-50.0359 0.844727H-6.98655M-50.0359 63.6603H-93.0852M-50.0359 63.6603V126.476M-50.0359 63.6603H-6.98655M-93.0852 63.6603V126.476M-50.0359 126.476H-93.0852M-50.0359 126.476V189.291M-50.0359 126.476H-6.98655M-93.0852 126.476V189.291M-50.0359 189.291H-93.0852M-50.0359 189.291V252.107M-50.0359 189.291H-6.98655M-93.0852 189.291V252.107M-50.0359 252.107H-93.0852M-50.0359 252.107V314.922M-50.0359 252.107H-6.98655M-93.0852 252.107V314.922M-50.0359 314.922H-93.0852M-50.0359 314.922V377.738M-50.0359 314.922H-6.98655M-93.0852 314.922V377.738M-50.0359 377.738H-93.0852M-50.0359 377.738V440.554M-50.0359 377.738H-6.98655M-93.0852 377.738V440.554M-50.0359 440.554H-93.0852M-50.0359 440.554V503.369M-50.0359 440.554H-6.98655M-93.0852 440.554V503.369M-50.0359 503.369H-93.0852M-50.0359 503.369V566.185M-50.0359 503.369H-6.98655M-93.0852 503.369V566.185M-50.0359 566.185H-93.0852M-50.0359 566.185V629M-50.0359 566.185H-6.98655M-93.0852 566.185V629M-50.0359 629H-93.0852M-50.0359 629V691.816M-50.0359 629H-6.98655M-93.0852 629V691.816M-50.0359 691.816H-93.0852M-50.0359 691.816V754.631M-50.0359 691.816H-6.98655M-93.0852 691.816V754.631M-50.0359 754.631H-93.0852M-50.0359 754.631V817.447M-50.0359 754.631H-6.98655M-93.0852 754.631V817.447M-50.0359 817.447H-93.0852M-50.0359 817.447V880.262M-50.0359 817.447H-6.98655M-93.0852 817.447V880.262M-50.0359 880.262H-93.0852M-50.0359 880.262V943.078M-50.0359 880.262H-6.98655M-93.0852 880.262V943.078M-50.0359 943.078H-93.0852M-50.0359 943.078V1005.89M-50.0359 943.078H-6.98655M-93.0852 943.078V1005.89M-50.0359 1005.89H-93.0852M-50.0359 1005.89V1068.71M-50.0359 1005.89H-6.98655M-93.0852 1005.89V1068.71M-50.0359 1068.71H-93.0852M-50.0359 1068.71V1131.52M-50.0359 1068.71H-6.98655M-93.0852 1068.71V1131.52M-50.0359 1131.52H-93.0852M-50.0359 1131.52V1194.34M-50.0359 1131.52H-6.98655M-93.0852 1131.52V1194.34M-50.0359 1194.34H-93.0852M-50.0359 1194.34V1257.16M-50.0359 1194.34H-6.98655M-93.0852 1194.34V1257.16H-50.0359M-50.0359 1257.16H-6.98655M-6.98655 0.844727V63.6603M-6.98655 0.844727H36.0628M-6.98655 63.6603V126.476M-6.98655 63.6603H36.0628M-6.98655 126.476V189.291M-6.98655 126.476H36.0628M-6.98655 189.291V252.107M-6.98655 189.291H36.0628M-6.98655 252.107V314.922M-6.98655 252.107H36.0628M-6.98655 314.922V377.738M-6.98655 314.922H36.0628M-6.98655 377.738V440.554M-6.98655 377.738H36.0628M-6.98655 440.554V503.369M-6.98655 440.554H36.0628M-6.98655 503.369V566.185M-6.98655 503.369H36.0628M-6.98655 566.185V629M-6.98655 566.185H36.0628M-6.98655 629V691.816M-6.98655 629H36.0628M-6.98655 691.816V754.631M-6.98655 691.816H36.0628M-6.98655 754.631V817.447M-6.98655 754.631H36.0628M-6.98655 817.447V880.262M-6.98655 817.447H36.0628M-6.98655 880.262V943.078M-6.98655 880.262H36.0628M-6.98655 943.078V1005.89M-6.98655 943.078H36.0628M-6.98655 1005.89V1068.71M-6.98655 1005.89H36.0628M-6.98655 1068.71V1131.52M-6.98655 1068.71H36.0628M-6.98655 1131.52V1194.34M-6.98655 1131.52H36.0628M-6.98655 1194.34V1257.16M-6.98655 1194.34H36.0628M-6.98655 1257.16H36.0628M36.0628 0.844727V63.6603M36.0628 0.844727H79.1121M36.0628 63.6603V126.476M36.0628 63.6603H79.1121M36.0628 126.476V189.291M36.0628 126.476H79.1121M36.0628 189.291V252.107M36.0628 189.291H79.1121M36.0628 252.107V314.922M36.0628 252.107H79.1121M36.0628 314.922V377.738M36.0628 314.922H79.1121M36.0628 377.738V440.554M36.0628 377.738H79.1121M36.0628 440.554V503.369M36.0628 440.554H79.1121M36.0628 503.369V566.185M36.0628 503.369H79.1121M36.0628 566.185V629M36.0628 566.185H79.1121M36.0628 629V691.816M36.0628 629H79.1121M36.0628 691.816V754.631M36.0628 691.816H79.1121M36.0628 754.631V817.447M36.0628 754.631H79.1121M36.0628 817.447V880.262M36.0628 817.447H79.1121M36.0628 880.262V943.078M36.0628 880.262H79.1121M36.0628 943.078V1005.89M36.0628 943.078H79.1121M36.0628 1005.89V1068.71M36.0628 1005.89H79.1121M36.0628 1068.71V1131.52M36.0628 1068.71H79.1121M36.0628 1131.52V1194.34M36.0628 1131.52H79.1121M36.0628 1194.34V1257.16M36.0628 1194.34H79.1121M36.0628 1257.16H79.1121M79.1121 0.844727V63.6603M79.1121 0.844727H122.161M79.1121 63.6603V126.476M79.1121 63.6603H122.161M79.1121 126.476V189.291M79.1121 126.476H122.161M79.1121 189.291V252.107M79.1121 189.291H122.161M79.1121 252.107V314.922M79.1121 252.107H122.161M79.1121 314.922V377.738M79.1121 314.922H122.161M79.1121 377.738V440.554M79.1121 377.738H122.161M79.1121 440.554V503.369M79.1121 440.554H122.161M79.1121 503.369V566.185M79.1121 503.369H122.161M79.1121 566.185V629M79.1121 566.185H122.161M79.1121 629V691.816M79.1121 629H122.161M79.1121 691.816V754.631M79.1121 691.816H122.161M79.1121 754.631V817.447M79.1121 754.631H122.161M79.1121 817.447V880.262M79.1121 817.447H122.161M79.1121 880.262V943.078M79.1121 880.262H122.161M79.1121 943.078V1005.89M79.1121 943.078H122.161M79.1121 1005.89V1068.71M79.1121 1005.89H122.161M79.1121 1068.71V1131.52M79.1121 1068.71H122.161M79.1121 1131.52V1194.34M79.1121 1131.52H122.161M79.1121 1194.34V1257.16M79.1121 1194.34H122.161M79.1121 1257.16H122.161M122.161 0.844727V63.6603M122.161 0.844727H165.211M122.161 63.6603V126.476M122.161 63.6603H165.211M122.161 126.476V189.291M122.161 126.476H165.211M122.161 189.291V252.107M122.161 189.291H165.211M122.161 252.107V314.922M122.161 252.107H165.211M122.161 314.922V377.738M122.161 314.922H165.211M122.161 377.738V440.554M122.161 377.738H165.211M122.161 440.554V503.369M122.161 440.554H165.211M122.161 503.369V566.185M122.161 503.369H165.211M122.161 566.185V629M122.161 566.185H165.211M122.161 629V691.816M122.161 629H165.211M122.161 691.816V754.631M122.161 691.816H165.211M122.161 754.631V817.447M122.161 754.631H165.211M122.161 817.447V880.262M122.161 817.447H165.211M122.161 880.262V943.078M122.161 880.262H165.211M122.161 943.078V1005.89M122.161 943.078H165.211M122.161 1005.89V1068.71M122.161 1005.89H165.211M122.161 1068.71V1131.52M122.161 1068.71H165.211M122.161 1131.52V1194.34M122.161 1131.52H165.211M122.161 1194.34V1257.16M122.161 1194.34H165.211M122.161 1257.16H165.211M165.211 0.844727V63.6603M165.211 0.844727H208.26M165.211 63.6603V126.476M165.211 63.6603H208.26M165.211 126.476V189.291M165.211 126.476H208.26M165.211 189.291V252.107M165.211 189.291H208.26M165.211 252.107V314.922M165.211 252.107H208.26M165.211 314.922V377.738M165.211 314.922H208.26M165.211 377.738V440.554M165.211 377.738H208.26M165.211 440.554V503.369M165.211 440.554H208.26M165.211 503.369V566.185M165.211 503.369H208.26M165.211 566.185V629M165.211 566.185H208.26M165.211 629V691.816M165.211 629H208.26M165.211 691.816V754.631M165.211 691.816H208.26M165.211 754.631V817.447M165.211 754.631H208.26M165.211 817.447V880.262M165.211 817.447H208.26M165.211 880.262V943.078M165.211 880.262H208.26M165.211 943.078V1005.89M165.211 943.078H208.26M165.211 1005.89V1068.71M165.211 1005.89H208.26M165.211 1068.71V1131.52M165.211 1068.71H208.26M165.211 1131.52V1194.34M165.211 1131.52H208.26M165.211 1194.34V1257.16M165.211 1194.34H208.26M165.211 1257.16H208.26M208.26 0.844727V63.6603M208.26 0.844727H251.309M208.26 63.6603V126.476M208.26 63.6603H251.309M208.26 126.476V189.291M208.26 126.476H251.309M208.26 189.291V252.107M208.26 189.291H251.309M208.26 252.107V314.922M208.26 252.107H251.309M208.26 314.922V377.738M208.26 314.922H251.309M208.26 377.738V440.554M208.26 377.738H251.309M208.26 440.554V503.369M208.26 440.554H251.309M208.26 503.369V566.185M208.26 503.369H251.309M208.26 566.185V629M208.26 566.185H251.309M208.26 629V691.816M208.26 629H251.309M208.26 691.816V754.631M208.26 691.816H251.309M208.26 754.631V817.447M208.26 754.631H251.309M208.26 817.447V880.262M208.26 817.447H251.309M208.26 880.262V943.078M208.26 880.262H251.309M208.26 943.078V1005.89M208.26 943.078H251.309M208.26 1005.89V1068.71M208.26 1005.89H251.309M208.26 1068.71V1131.52M208.26 1068.71H251.309M208.26 1131.52V1194.34M208.26 1131.52H251.309M208.26 1194.34V1257.16M208.26 1194.34H251.309M208.26 1257.16H251.309M251.309 0.844727V63.6603M251.309 0.844727H294.359M251.309 63.6603V126.476M251.309 63.6603H294.359M251.309 126.476V189.291M251.309 126.476H294.359M251.309 189.291V252.107M251.309 189.291H294.359M251.309 252.107V314.922M251.309 252.107H294.359M251.309 314.922V377.738M251.309 314.922H294.359M251.309 377.738V440.554M251.309 377.738H294.359M251.309 440.554V503.369M251.309 440.554H294.359M251.309 503.369V566.185M251.309 503.369H294.359M251.309 566.185V629M251.309 566.185H294.359M251.309 629V691.816M251.309 629H294.359M251.309 691.816V754.631M251.309 691.816H294.359M251.309 754.631V817.447M251.309 754.631H294.359M251.309 817.447V880.262M251.309 817.447H294.359M251.309 880.262V943.078M251.309 880.262H294.359M251.309 943.078V1005.89M251.309 943.078H294.359M251.309 1005.89V1068.71M251.309 1005.89H294.359M251.309 1068.71V1131.52M251.309 1068.71H294.359M251.309 1131.52V1194.34M251.309 1131.52H294.359M251.309 1194.34V1257.16M251.309 1194.34H294.359M251.309 1257.16H294.359M294.359 0.844727V63.6603M294.359 0.844727H337.408M294.359 63.6603V126.476M294.359 63.6603H337.408M294.359 126.476V189.291M294.359 126.476H337.408M294.359 189.291V252.107M294.359 189.291H337.408M294.359 252.107V314.922M294.359 252.107H337.408M294.359 314.922V377.738M294.359 314.922H337.408M294.359 377.738V440.554M294.359 377.738H337.408M294.359 440.554V503.369M294.359 440.554H337.408M294.359 503.369V566.185M294.359 503.369H337.408M294.359 566.185V629M294.359 566.185H337.408M294.359 629V691.816M294.359 629H337.408M294.359 691.816V754.631M294.359 691.816H337.408M294.359 754.631V817.447M294.359 754.631H337.408M294.359 817.447V880.262M294.359 817.447H337.408M294.359 880.262V943.078M294.359 880.262H337.408M294.359 943.078V1005.89M294.359 943.078H337.408M294.359 1005.89V1068.71M294.359 1005.89H337.408M294.359 1068.71V1131.52M294.359 1068.71H337.408M294.359 1131.52V1194.34M294.359 1131.52H337.408M294.359 1194.34V1257.16M294.359 1194.34H337.408M294.359 1257.16H337.408M337.408 0.844727V63.6603M337.408 0.844727H380.457M337.408 63.6603V126.476M337.408 63.6603H380.457M337.408 126.476V189.291M337.408 126.476H380.457M337.408 189.291V252.107M337.408 189.291H380.457M337.408 252.107V314.922M337.408 252.107H380.457M337.408 314.922V377.738M337.408 314.922H380.457M337.408 377.738V440.554M337.408 377.738H380.457M337.408 440.554V503.369M337.408 440.554H380.457M337.408 503.369V566.185M337.408 503.369H380.457M337.408 566.185V629M337.408 566.185H380.457M337.408 629V691.816M337.408 629H380.457M337.408 691.816V754.631M337.408 691.816H380.457M337.408 754.631V817.447M337.408 754.631H380.457M337.408 817.447V880.262M337.408 817.447H380.457M337.408 880.262V943.078M337.408 880.262H380.457M337.408 943.078V1005.89M337.408 943.078H380.457M337.408 1005.89V1068.71M337.408 1005.89H380.457M337.408 1068.71V1131.52M337.408 1068.71H380.457M337.408 1131.52V1194.34M337.408 1131.52H380.457M337.408 1194.34V1257.16M337.408 1194.34H380.457M337.408 1257.16H380.457M380.457 0.844727V63.6603M380.457 0.844727H423.507M380.457 63.6603V126.476M380.457 63.6603H423.507M380.457 126.476V189.291M380.457 126.476H423.507M380.457 189.291V252.107M380.457 189.291H423.507M380.457 252.107V314.922M380.457 252.107H423.507M380.457 314.922V377.738M380.457 314.922H423.507M380.457 377.738V440.554M380.457 377.738H423.507M380.457 440.554V503.369M380.457 440.554H423.507M380.457 503.369V566.185M380.457 503.369H423.507M380.457 566.185V629M380.457 566.185H423.507M380.457 629V691.816M380.457 629H423.507M380.457 691.816V754.631M380.457 691.816H423.507M380.457 754.631V817.447M380.457 754.631H423.507M380.457 817.447V880.262M380.457 817.447H423.507M380.457 880.262V943.078M380.457 880.262H423.507M380.457 943.078V1005.89M380.457 943.078H423.507M380.457 1005.89V1068.71M380.457 1005.89H423.507M380.457 1068.71V1131.52M380.457 1068.71H423.507M380.457 1131.52V1194.34M380.457 1131.52H423.507M380.457 1194.34V1257.16M380.457 1194.34H423.507M380.457 1257.16H423.507M423.507 0.844727V63.6603M423.507 0.844727H466.556M423.507 63.6603V126.476M423.507 63.6603H466.556M423.507 126.476V189.291M423.507 126.476H466.556M423.507 189.291V252.107M423.507 189.291H466.556M423.507 252.107V314.922M423.507 252.107H466.556M423.507 314.922V377.738M423.507 314.922H466.556M423.507 377.738V440.554M423.507 377.738H466.556M423.507 440.554V503.369M423.507 440.554H466.556M423.507 503.369V566.185M423.507 503.369H466.556M423.507 566.185V629M423.507 566.185H466.556M423.507 629V691.816M423.507 629H466.556M423.507 691.816V754.631M423.507 691.816H466.556M423.507 754.631V817.447M423.507 754.631H466.556M423.507 817.447V880.262M423.507 817.447H466.556M423.507 880.262V943.078M423.507 880.262H466.556M423.507 943.078V1005.89M423.507 943.078H466.556M423.507 1005.89V1068.71M423.507 1005.89H466.556M423.507 1068.71V1131.52M423.507 1068.71H466.556M423.507 1131.52V1194.34M423.507 1131.52H466.556M423.507 1194.34V1257.16M423.507 1194.34H466.556M423.507 1257.16H466.556M466.556 0.844727V63.6603M466.556 0.844727H509.605M466.556 63.6603V126.476M466.556 63.6603H509.605M466.556 126.476V189.291M466.556 126.476H509.605M466.556 189.291V252.107M466.556 189.291H509.605M466.556 252.107V314.922M466.556 252.107H509.605M466.556 314.922V377.738M466.556 314.922H509.605M466.556 377.738V440.554M466.556 377.738H509.605M466.556 440.554V503.369M466.556 440.554H509.605M466.556 503.369V566.185M466.556 503.369H509.605M466.556 566.185V629M466.556 566.185H509.605M466.556 629V691.816M466.556 629H509.605M466.556 691.816V754.631M466.556 691.816H509.605M466.556 754.631V817.447M466.556 754.631H509.605M466.556 817.447V880.262M466.556 817.447H509.605M466.556 880.262V943.078M466.556 880.262H509.605M466.556 943.078V1005.89M466.556 943.078H509.605M466.556 1005.89V1068.71M466.556 1005.89H509.605M466.556 1068.71V1131.52M466.556 1068.71H509.605M466.556 1131.52V1194.34M466.556 1131.52H509.605M466.556 1194.34V1257.16M466.556 1194.34H509.605M466.556 1257.16H509.605M509.605 0.844727V63.6603M509.605 0.844727H552.655M509.605 63.6603V126.476M509.605 63.6603H552.655M509.605 126.476V189.291M509.605 126.476H552.655M509.605 189.291V252.107M509.605 189.291H552.655M509.605 252.107V314.922M509.605 252.107H552.655M509.605 314.922V377.738M509.605 314.922H552.655M509.605 377.738V440.554M509.605 377.738H552.655M509.605 440.554V503.369M509.605 440.554H552.655M509.605 503.369V566.185M509.605 503.369H552.655M509.605 566.185V629M509.605 566.185H552.655M509.605 629V691.816M509.605 629H552.655M509.605 691.816V754.631M509.605 691.816H552.655M509.605 754.631V817.447M509.605 754.631H552.655M509.605 817.447V880.262M509.605 817.447H552.655M509.605 880.262V943.078M509.605 880.262H552.655M509.605 943.078V1005.89M509.605 943.078H552.655M509.605 1005.89V1068.71M509.605 1005.89H552.655M509.605 1068.71V1131.52M509.605 1068.71H552.655M509.605 1131.52V1194.34M509.605 1131.52H552.655M509.605 1194.34V1257.16M509.605 1194.34H552.655M509.605 1257.16H552.655M552.655 0.844727V63.6603M552.655 0.844727H595.704M552.655 63.6603V126.476M552.655 63.6603H595.704M552.655 126.476V189.291M552.655 126.476H595.704M552.655 189.291V252.107M552.655 189.291H595.704M552.655 252.107V314.922M552.655 252.107H595.704M552.655 314.922V377.738M552.655 314.922H595.704M552.655 377.738V440.554M552.655 377.738H595.704M552.655 440.554V503.369M552.655 440.554H595.704M552.655 503.369V566.185M552.655 503.369H595.704M552.655 566.185V629M552.655 566.185H595.704M552.655 629V691.816M552.655 629H595.704M552.655 691.816V754.631M552.655 691.816H595.704M552.655 754.631V817.447M552.655 754.631H595.704M552.655 817.447V880.262M552.655 817.447H595.704M552.655 880.262V943.078M552.655 880.262H595.704M552.655 943.078V1005.89M552.655 943.078H595.704M552.655 1005.89V1068.71M552.655 1005.89H595.704M552.655 1068.71V1131.52M552.655 1068.71H595.704M552.655 1131.52V1194.34M552.655 1131.52H595.704M552.655 1194.34V1257.16M552.655 1194.34H595.704M552.655 1257.16H595.704M595.704 0.844727V63.6603M595.704 0.844727H638.753M595.704 63.6603V126.476M595.704 63.6603H638.753M595.704 126.476V189.291M595.704 126.476H638.753M595.704 189.291V252.107M595.704 189.291H638.753M595.704 252.107V314.922M595.704 252.107H638.753M595.704 314.922V377.738M595.704 314.922H638.753M595.704 377.738V440.554M595.704 377.738H638.753M595.704 440.554V503.369M595.704 440.554H638.753M595.704 503.369V566.185M595.704 503.369H638.753M595.704 566.185V629M595.704 566.185H638.753M595.704 629V691.816M595.704 629H638.753M595.704 691.816V754.631M595.704 691.816H638.753M595.704 754.631V817.447M595.704 754.631H638.753M595.704 817.447V880.262M595.704 817.447H638.753M595.704 880.262V943.078M595.704 880.262H638.753M595.704 943.078V1005.89M595.704 943.078H638.753M595.704 1005.89V1068.71M595.704 1005.89H638.753M595.704 1068.71V1131.52M595.704 1068.71H638.753M595.704 1131.52V1194.34M595.704 1131.52H638.753M595.704 1194.34V1257.16M595.704 1194.34H638.753M595.704 1257.16H638.753M638.753 0.844727V63.6603M638.753 0.844727H681.803M638.753 63.6603V126.476M638.753 63.6603H681.803M638.753 126.476V189.291M638.753 126.476H681.803M638.753 189.291V252.107M638.753 189.291H681.803M638.753 252.107V314.922M638.753 252.107H681.803M638.753 314.922V377.738M638.753 314.922H681.803M638.753 377.738V440.554M638.753 377.738H681.803M638.753 440.554V503.369M638.753 440.554H681.803M638.753 503.369V566.185M638.753 503.369H681.803M638.753 566.185V629M638.753 566.185H681.803M638.753 629V691.816M638.753 629H681.803M638.753 691.816V754.631M638.753 691.816H681.803M638.753 754.631V817.447M638.753 754.631H681.803M638.753 817.447V880.262M638.753 817.447H681.803M638.753 880.262V943.078M638.753 880.262H681.803M638.753 943.078V1005.89M638.753 943.078H681.803M638.753 1005.89V1068.71M638.753 1005.89H681.803M638.753 1068.71V1131.52M638.753 1068.71H681.803M638.753 1131.52V1194.34M638.753 1131.52H681.803M638.753 1194.34V1257.16M638.753 1194.34H681.803M638.753 1257.16H681.803M681.803 0.844727V63.6603M681.803 0.844727H724.852M681.803 63.6603V126.476M681.803 63.6603H724.852M681.803 126.476V189.291M681.803 126.476H724.852M681.803 189.291V252.107M681.803 189.291H724.852M681.803 252.107V314.922M681.803 252.107H724.852M681.803 314.922V377.738M681.803 314.922H724.852M681.803 377.738V440.554M681.803 377.738H724.852M681.803 440.554V503.369M681.803 440.554H724.852M681.803 503.369V566.185M681.803 503.369H724.852M681.803 566.185V629M681.803 566.185H724.852M681.803 629V691.816M681.803 629H724.852M681.803 691.816V754.631M681.803 691.816H724.852M681.803 754.631V817.447M681.803 754.631H724.852M681.803 817.447V880.262M681.803 817.447H724.852M681.803 880.262V943.078M681.803 880.262H724.852M681.803 943.078V1005.89M681.803 943.078H724.852M681.803 1005.89V1068.71M681.803 1005.89H724.852M681.803 1068.71V1131.52M681.803 1068.71H724.852M681.803 1131.52V1194.34M681.803 1131.52H724.852M681.803 1194.34V1257.16M681.803 1194.34H724.852M681.803 1257.16H724.852M724.852 0.844727V63.6603M724.852 0.844727H767.901M724.852 63.6603V126.476M724.852 63.6603H767.901M724.852 126.476V189.291M724.852 126.476H767.901M724.852 189.291V252.107M724.852 189.291H767.901M724.852 252.107V314.922M724.852 252.107H767.901M724.852 314.922V377.738M724.852 314.922H767.901M724.852 377.738V440.554M724.852 377.738H767.901M724.852 440.554V503.369M724.852 440.554H767.901M724.852 503.369V566.185M724.852 503.369H767.901M724.852 566.185V629M724.852 566.185H767.901M724.852 629V691.816M724.852 629H767.901M724.852 691.816V754.631M724.852 691.816H767.901M724.852 754.631V817.447M724.852 754.631H767.901M724.852 817.447V880.262M724.852 817.447H767.901M724.852 880.262V943.078M724.852 880.262H767.901M724.852 943.078V1005.89M724.852 943.078H767.901M724.852 1005.89V1068.71M724.852 1005.89H767.901M724.852 1068.71V1131.52M724.852 1068.71H767.901M724.852 1131.52V1194.34M724.852 1131.52H767.901M724.852 1194.34V1257.16M724.852 1194.34H767.901M724.852 1257.16H767.901M767.901 0.844727V63.6603M767.901 0.844727H810.951M767.901 63.6603V126.476M767.901 63.6603H810.951M767.901 126.476V189.291M767.901 126.476H810.951M767.901 189.291V252.107M767.901 189.291H810.951M767.901 252.107V314.922M767.901 252.107H810.951M767.901 314.922V377.738M767.901 314.922H810.951M767.901 377.738V440.554M767.901 377.738H810.951M767.901 440.554V503.369M767.901 440.554H810.951M767.901 503.369V566.185M767.901 503.369H810.951M767.901 566.185V629M767.901 566.185H810.951M767.901 629V691.816M767.901 629H810.951M767.901 691.816V754.631M767.901 691.816H810.951M767.901 754.631V817.447M767.901 754.631H810.951M767.901 817.447V880.262M767.901 817.447H810.951M767.901 880.262V943.078M767.901 880.262H810.951M767.901 943.078V1005.89M767.901 943.078H810.951M767.901 1005.89V1068.71M767.901 1005.89H810.951M767.901 1068.71V1131.52M767.901 1068.71H810.951M767.901 1131.52V1194.34M767.901 1131.52H810.951M767.901 1194.34V1257.16M767.901 1194.34H810.951M767.901 1257.16H810.951M810.951 0.844727V63.6603M810.951 0.844727H854M810.951 63.6603V126.476M810.951 63.6603H854M810.951 126.476V189.291M810.951 126.476H854M810.951 189.291V252.107M810.951 189.291H854M810.951 252.107V314.922M810.951 252.107H854M810.951 314.922V377.738M810.951 314.922H854M810.951 377.738V440.554M810.951 377.738H854M810.951 440.554V503.369M810.951 440.554H854M810.951 503.369V566.185M810.951 503.369H854M810.951 566.185V629M810.951 566.185H854M810.951 629V691.816M810.951 629H854M810.951 691.816V754.631M810.951 691.816H854M810.951 754.631V817.447M810.951 754.631H854M810.951 817.447V880.262M810.951 817.447H854M810.951 880.262V943.078M810.951 880.262H854M810.951 943.078V1005.89M810.951 943.078H854M810.951 1005.89V1068.71M810.951 1005.89H854M810.951 1068.71V1131.52M810.951 1068.71H854M810.951 1131.52V1194.34M810.951 1131.52H854M810.951 1194.34V1257.16M810.951 1194.34H854M810.951 1257.16H854M854 0.844727V63.6603M854 0.844727H897.049M854 63.6603V126.476M854 63.6603H897.049M854 126.476V189.291M854 126.476H897.049M854 189.291V252.107M854 189.291H897.049M854 252.107V314.922M854 252.107H897.049M854 314.922V377.738M854 314.922H897.049M854 377.738V440.554M854 377.738H897.049M854 440.554V503.369M854 440.554H897.049M854 503.369V566.185M854 503.369H897.049M854 566.185V629M854 566.185H897.049M854 629V691.816M854 629H897.049M854 691.816V754.631M854 691.816H897.049M854 754.631V817.447M854 754.631H897.049M854 817.447V880.262M854 817.447H897.049M854 880.262V943.078M854 880.262H897.049M854 943.078V1005.89M854 943.078H897.049M854 1005.89V1068.71M854 1005.89H897.049M854 1068.71V1131.52M854 1068.71H897.049M854 1131.52V1194.34M854 1131.52H897.049M854 1194.34V1257.16M854 1194.34H897.049M854 1257.16H897.049M897.049 0.844727V63.6603M897.049 0.844727H940.099M897.049 63.6603V126.476M897.049 63.6603H940.099M897.049 126.476V189.291M897.049 126.476H940.099M897.049 189.291V252.107M897.049 189.291H940.099M897.049 252.107V314.922M897.049 252.107H940.099M897.049 314.922V377.738M897.049 314.922H940.099M897.049 377.738V440.554M897.049 377.738H940.099M897.049 440.554V503.369M897.049 440.554H940.099M897.049 503.369V566.185M897.049 503.369H940.099M897.049 566.185V629M897.049 566.185H940.099M897.049 629V691.816M897.049 629H940.099M897.049 691.816V754.631M897.049 691.816H940.099M897.049 754.631V817.447M897.049 754.631H940.099M897.049 817.447V880.262M897.049 817.447H940.099M897.049 880.262V943.078M897.049 880.262H940.099M897.049 943.078V1005.89M897.049 943.078H940.099M897.049 1005.89V1068.71M897.049 1005.89H940.099M897.049 1068.71V1131.52M897.049 1068.71H940.099M897.049 1131.52V1194.34M897.049 1131.52H940.099M897.049 1194.34V1257.16M897.049 1194.34H940.099M897.049 1257.16H940.099M940.099 0.844727V63.6603M940.099 0.844727H983.148M940.099 63.6603V126.476M940.099 63.6603H983.148M940.099 126.476V189.291M940.099 126.476H983.148M940.099 189.291V252.107M940.099 189.291H983.148M940.099 252.107V314.922M940.099 252.107H983.148M940.099 314.922V377.738M940.099 314.922H983.148M940.099 377.738V440.554M940.099 377.738H983.148M940.099 440.554V503.369M940.099 440.554H983.148M940.099 503.369V566.185M940.099 503.369H983.148M940.099 566.185V629M940.099 566.185H983.148M940.099 629V691.816M940.099 629H983.148M940.099 691.816V754.631M940.099 691.816H983.148M940.099 754.631V817.447M940.099 754.631H983.148M940.099 817.447V880.262M940.099 817.447H983.148M940.099 880.262V943.078M940.099 880.262H983.148M940.099 943.078V1005.89M940.099 943.078H983.148M940.099 1005.89V1068.71M940.099 1005.89H983.148M940.099 1068.71V1131.52M940.099 1068.71H983.148M940.099 1131.52V1194.34M940.099 1131.52H983.148M940.099 1194.34V1257.16M940.099 1194.34H983.148M940.099 1257.16H983.148M983.148 0.844727V63.6603M983.148 0.844727H1026.2M983.148 63.6603V126.476M983.148 63.6603H1026.2M983.148 126.476V189.291M983.148 126.476H1026.2M983.148 189.291V252.107M983.148 189.291H1026.2M983.148 252.107V314.922M983.148 252.107H1026.2M983.148 314.922V377.738M983.148 314.922H1026.2M983.148 377.738V440.554M983.148 377.738H1026.2M983.148 440.554V503.369M983.148 440.554H1026.2M983.148 503.369V566.185M983.148 503.369H1026.2M983.148 566.185V629M983.148 566.185H1026.2M983.148 629V691.816M983.148 629H1026.2M983.148 691.816V754.631M983.148 691.816H1026.2M983.148 754.631V817.447M983.148 754.631H1026.2M983.148 817.447V880.262M983.148 817.447H1026.2M983.148 880.262V943.078M983.148 880.262H1026.2M983.148 943.078V1005.89M983.148 943.078H1026.2M983.148 1005.89V1068.71M983.148 1005.89H1026.2M983.148 1068.71V1131.52M983.148 1068.71H1026.2M983.148 1131.52V1194.34M983.148 1131.52H1026.2M983.148 1194.34V1257.16M983.148 1194.34H1026.2M983.148 1257.16H1026.2M1026.2 0.844727V63.6603M1026.2 0.844727H1069.25M1026.2 63.6603V126.476M1026.2 63.6603H1069.25M1026.2 126.476V189.291M1026.2 126.476H1069.25M1026.2 189.291V252.107M1026.2 189.291H1069.25M1026.2 252.107V314.922M1026.2 252.107H1069.25M1026.2 314.922V377.738M1026.2 314.922H1069.25M1026.2 377.738V440.554M1026.2 377.738H1069.25M1026.2 440.554V503.369M1026.2 440.554H1069.25M1026.2 503.369V566.185M1026.2 503.369H1069.25M1026.2 566.185V629M1026.2 566.185H1069.25M1026.2 629V691.816M1026.2 629H1069.25M1026.2 691.816V754.631M1026.2 691.816H1069.25M1026.2 754.631V817.447M1026.2 754.631H1069.25M1026.2 817.447V880.262M1026.2 817.447H1069.25M1026.2 880.262V943.078M1026.2 880.262H1069.25M1026.2 943.078V1005.89M1026.2 943.078H1069.25M1026.2 1005.89V1068.71M1026.2 1005.89H1069.25M1026.2 1068.71V1131.52M1026.2 1068.71H1069.25M1026.2 1131.52V1194.34M1026.2 1131.52H1069.25M1026.2 1194.34V1257.16M1026.2 1194.34H1069.25M1026.2 1257.16H1069.25M1069.25 0.844727V63.6603M1069.25 0.844727H1112.3M1069.25 63.6603V126.476M1069.25 63.6603H1112.3M1069.25 126.476V189.291M1069.25 126.476H1112.3M1069.25 189.291V252.107M1069.25 189.291H1112.3M1069.25 252.107V314.922M1069.25 252.107H1112.3M1069.25 314.922V377.738M1069.25 314.922H1112.3M1069.25 377.738V440.554M1069.25 377.738H1112.3M1069.25 440.554V503.369M1069.25 440.554H1112.3M1069.25 503.369V566.185M1069.25 503.369H1112.3M1069.25 566.185V629M1069.25 566.185H1112.3M1069.25 629V691.816M1069.25 629H1112.3M1069.25 691.816V754.631M1069.25 691.816H1112.3M1069.25 754.631V817.447M1069.25 754.631H1112.3M1069.25 817.447V880.262M1069.25 817.447H1112.3M1069.25 880.262V943.078M1069.25 880.262H1112.3M1069.25 943.078V1005.89M1069.25 943.078H1112.3M1069.25 1005.89V1068.71M1069.25 1005.89H1112.3M1069.25 1068.71V1131.52M1069.25 1068.71H1112.3M1069.25 1131.52V1194.34M1069.25 1131.52H1112.3M1069.25 1194.34V1257.16M1069.25 1194.34H1112.3M1069.25 1257.16H1112.3M1112.3 0.844727V63.6603M1112.3 0.844727H1155.35M1112.3 63.6603V126.476M1112.3 63.6603H1155.35M1112.3 126.476V189.291M1112.3 126.476H1155.35M1112.3 189.291V252.107M1112.3 189.291H1155.35M1112.3 252.107V314.922M1112.3 252.107H1155.35M1112.3 314.922V377.738M1112.3 314.922H1155.35M1112.3 377.738V440.554M1112.3 377.738H1155.35M1112.3 440.554V503.369M1112.3 440.554H1155.35M1112.3 503.369V566.185M1112.3 503.369H1155.35M1112.3 566.185V629M1112.3 566.185H1155.35M1112.3 629V691.816M1112.3 629H1155.35M1112.3 691.816V754.631M1112.3 691.816H1155.35M1112.3 754.631V817.447M1112.3 754.631H1155.35M1112.3 817.447V880.262M1112.3 817.447H1155.35M1112.3 880.262V943.078M1112.3 880.262H1155.35M1112.3 943.078V1005.89M1112.3 943.078H1155.35M1112.3 1005.89V1068.71M1112.3 1005.89H1155.35M1112.3 1068.71V1131.52M1112.3 1068.71H1155.35M1112.3 1131.52V1194.34M1112.3 1131.52H1155.35M1112.3 1194.34V1257.16M1112.3 1194.34H1155.35M1112.3 1257.16H1155.35M1155.35 0.844727V63.6603M1155.35 0.844727H1198.39M1155.35 63.6603V126.476M1155.35 63.6603H1198.39M1155.35 126.476V189.291M1155.35 126.476H1198.39M1155.35 189.291V252.107M1155.35 189.291H1198.39M1155.35 252.107V314.922M1155.35 252.107H1198.39M1155.35 314.922V377.738M1155.35 314.922H1198.39M1155.35 377.738V440.554M1155.35 377.738H1198.39M1155.35 440.554V503.369M1155.35 440.554H1198.39M1155.35 503.369V566.185M1155.35 503.369H1198.39M1155.35 566.185V629M1155.35 566.185H1198.39M1155.35 629V691.816M1155.35 629H1198.39M1155.35 691.816V754.631M1155.35 691.816H1198.39M1155.35 754.631V817.447M1155.35 754.631H1198.39M1155.35 817.447V880.262M1155.35 817.447H1198.39M1155.35 880.262V943.078M1155.35 880.262H1198.39M1155.35 943.078V1005.89M1155.35 943.078H1198.39M1155.35 1005.89V1068.71M1155.35 1005.89H1198.39M1155.35 1068.71V1131.52M1155.35 1068.71H1198.39M1155.35 1131.52V1194.34M1155.35 1131.52H1198.39M1155.35 1194.34V1257.16M1155.35 1194.34H1198.39M1155.35 1257.16H1198.39M1198.39 0.844727V63.6603M1198.39 0.844727H1241.44M1198.39 63.6603V126.476M1198.39 63.6603H1241.44M1198.39 126.476V189.291M1198.39 126.476H1241.44M1198.39 189.291V252.107M1198.39 189.291H1241.44M1198.39 252.107V314.922M1198.39 252.107H1241.44M1198.39 314.922V377.738M1198.39 314.922H1241.44M1198.39 377.738V440.554M1198.39 377.738H1241.44M1198.39 440.554V503.369M1198.39 440.554H1241.44M1198.39 503.369V566.185M1198.39 503.369H1241.44M1198.39 566.185V629M1198.39 566.185H1241.44M1198.39 629V691.816M1198.39 629H1241.44M1198.39 691.816V754.631M1198.39 691.816H1241.44M1198.39 754.631V817.447M1198.39 754.631H1241.44M1198.39 817.447V880.262M1198.39 817.447H1241.44M1198.39 880.262V943.078M1198.39 880.262H1241.44M1198.39 943.078V1005.89M1198.39 943.078H1241.44M1198.39 1005.89V1068.71M1198.39 1005.89H1241.44M1198.39 1068.71V1131.52M1198.39 1068.71H1241.44M1198.39 1131.52V1194.34M1198.39 1131.52H1241.44M1198.39 1194.34V1257.16M1198.39 1194.34H1241.44M1198.39 1257.16H1241.44M1241.44 0.844727V63.6603M1241.44 0.844727H1284.49M1241.44 63.6603V126.476M1241.44 63.6603H1284.49M1241.44 126.476V189.291M1241.44 126.476H1284.49M1241.44 189.291V252.107M1241.44 189.291H1284.49M1241.44 252.107V314.922M1241.44 252.107H1284.49M1241.44 314.922V377.738M1241.44 314.922H1284.49M1241.44 377.738V440.554M1241.44 377.738H1284.49M1241.44 440.554V503.369M1241.44 440.554H1284.49M1241.44 503.369V566.185M1241.44 503.369H1284.49M1241.44 566.185V629M1241.44 566.185H1284.49M1241.44 629V691.816M1241.44 629H1284.49M1241.44 691.816V754.631M1241.44 691.816H1284.49M1241.44 754.631V817.447M1241.44 754.631H1284.49M1241.44 817.447V880.262M1241.44 817.447H1284.49M1241.44 880.262V943.078M1241.44 880.262H1284.49M1241.44 943.078V1005.89M1241.44 943.078H1284.49M1241.44 1005.89V1068.71M1241.44 1005.89H1284.49M1241.44 1068.71V1131.52M1241.44 1068.71H1284.49M1241.44 1131.52V1194.34M1241.44 1131.52H1284.49M1241.44 1194.34V1257.16M1241.44 1194.34H1284.49M1241.44 1257.16H1284.49M1284.49 0.844727V63.6603M1284.49 0.844727H1327.54M1284.49 63.6603V126.476M1284.49 63.6603H1327.54M1284.49 126.476V189.291M1284.49 126.476H1327.54M1284.49 189.291V252.107M1284.49 189.291H1327.54M1284.49 252.107V314.922M1284.49 252.107H1327.54M1284.49 314.922V377.738M1284.49 314.922H1327.54M1284.49 377.738V440.554M1284.49 377.738H1327.54M1284.49 440.554V503.369M1284.49 440.554H1327.54M1284.49 503.369V566.185M1284.49 503.369H1327.54M1284.49 566.185V629M1284.49 566.185H1327.54M1284.49 629V691.816M1284.49 629H1327.54M1284.49 691.816V754.631M1284.49 691.816H1327.54M1284.49 754.631V817.447M1284.49 754.631H1327.54M1284.49 817.447V880.262M1284.49 817.447H1327.54M1284.49 880.262V943.078M1284.49 880.262H1327.54M1284.49 943.078V1005.89M1284.49 943.078H1327.54M1284.49 1005.89V1068.71M1284.49 1005.89H1327.54M1284.49 1068.71V1131.52M1284.49 1068.71H1327.54M1284.49 1131.52V1194.34M1284.49 1131.52H1327.54M1284.49 1194.34V1257.16M1284.49 1194.34H1327.54M1284.49 1257.16H1327.54M1327.54 0.844727V63.6603M1327.54 0.844727H1370.59M1327.54 63.6603V126.476M1327.54 63.6603H1370.59M1327.54 126.476V189.291M1327.54 126.476H1370.59M1327.54 189.291V252.107M1327.54 189.291H1370.59M1327.54 252.107V314.922M1327.54 252.107H1370.59M1327.54 314.922V377.738M1327.54 314.922H1370.59M1327.54 377.738V440.554M1327.54 377.738H1370.59M1327.54 440.554V503.369M1327.54 440.554H1370.59M1327.54 503.369V566.185M1327.54 503.369H1370.59M1327.54 566.185V629M1327.54 566.185H1370.59M1327.54 629V691.816M1327.54 629H1370.59M1327.54 691.816V754.631M1327.54 691.816H1370.59M1327.54 754.631V817.447M1327.54 754.631H1370.59M1327.54 817.447V880.262M1327.54 817.447H1370.59M1327.54 880.262V943.078M1327.54 880.262H1370.59M1327.54 943.078V1005.89M1327.54 943.078H1370.59M1327.54 1005.89V1068.71M1327.54 1005.89H1370.59M1327.54 1068.71V1131.52M1327.54 1068.71H1370.59M1327.54 1131.52V1194.34M1327.54 1131.52H1370.59M1327.54 1194.34V1257.16M1327.54 1194.34H1370.59M1327.54 1257.16H1370.59M1370.59 0.844727V63.6603M1370.59 0.844727H1413.64M1370.59 63.6603V126.476M1370.59 63.6603H1413.64M1370.59 126.476V189.291M1370.59 126.476H1413.64M1370.59 189.291V252.107M1370.59 189.291H1413.64M1370.59 252.107V314.922M1370.59 252.107H1413.64M1370.59 314.922V377.738M1370.59 314.922H1413.64M1370.59 377.738V440.554M1370.59 377.738H1413.64M1370.59 440.554V503.369M1370.59 440.554H1413.64M1370.59 503.369V566.185M1370.59 503.369H1413.64M1370.59 566.185V629M1370.59 566.185H1413.64M1370.59 629V691.816M1370.59 629H1413.64M1370.59 691.816V754.631M1370.59 691.816H1413.64M1370.59 754.631V817.447M1370.59 754.631H1413.64M1370.59 817.447V880.262M1370.59 817.447H1413.64M1370.59 880.262V943.078M1370.59 880.262H1413.64M1370.59 943.078V1005.89M1370.59 943.078H1413.64M1370.59 1005.89V1068.71M1370.59 1005.89H1413.64M1370.59 1068.71V1131.52M1370.59 1068.71H1413.64M1370.59 1131.52V1194.34M1370.59 1131.52H1413.64M1370.59 1194.34V1257.16M1370.59 1194.34H1413.64M1370.59 1257.16H1413.64M1413.64 0.844727V63.6603M1413.64 0.844727H1456.69M1413.64 63.6603V126.476M1413.64 63.6603H1456.69M1413.64 126.476V189.291M1413.64 126.476H1456.69M1413.64 189.291V252.107M1413.64 189.291H1456.69M1413.64 252.107V314.922M1413.64 252.107H1456.69M1413.64 314.922V377.738M1413.64 314.922H1456.69M1413.64 377.738V440.554M1413.64 377.738H1456.69M1413.64 440.554V503.369M1413.64 440.554H1456.69M1413.64 503.369V566.185M1413.64 503.369H1456.69M1413.64 566.185V629M1413.64 566.185H1456.69M1413.64 629V691.816M1413.64 629H1456.69M1413.64 691.816V754.631M1413.64 691.816H1456.69M1413.64 754.631V817.447M1413.64 754.631H1456.69M1413.64 817.447V880.262M1413.64 817.447H1456.69M1413.64 880.262V943.078M1413.64 880.262H1456.69M1413.64 943.078V1005.89M1413.64 943.078H1456.69M1413.64 1005.89V1068.71M1413.64 1005.89H1456.69M1413.64 1068.71V1131.52M1413.64 1068.71H1456.69M1413.64 1131.52V1194.34M1413.64 1131.52H1456.69M1413.64 1194.34V1257.16M1413.64 1194.34H1456.69M1413.64 1257.16H1456.69M1456.69 0.844727V63.6603M1456.69 0.844727H1499.74M1456.69 63.6603V126.476M1456.69 63.6603H1499.74M1456.69 126.476V189.291M1456.69 126.476H1499.74M1456.69 189.291V252.107M1456.69 189.291H1499.74M1456.69 252.107V314.922M1456.69 252.107H1499.74M1456.69 314.922V377.738M1456.69 314.922H1499.74M1456.69 377.738V440.554M1456.69 377.738H1499.74M1456.69 440.554V503.369M1456.69 440.554H1499.74M1456.69 503.369V566.185M1456.69 503.369H1499.74M1456.69 566.185V629M1456.69 566.185H1499.74M1456.69 629V691.816M1456.69 629H1499.74M1456.69 691.816V754.631M1456.69 691.816H1499.74M1456.69 754.631V817.447M1456.69 754.631H1499.74M1456.69 817.447V880.262M1456.69 817.447H1499.74M1456.69 880.262V943.078M1456.69 880.262H1499.74M1456.69 943.078V1005.89M1456.69 943.078H1499.74M1456.69 1005.89V1068.71M1456.69 1005.89H1499.74M1456.69 1068.71V1131.52M1456.69 1068.71H1499.74M1456.69 1131.52V1194.34M1456.69 1131.52H1499.74M1456.69 1194.34V1257.16M1456.69 1194.34H1499.74M1456.69 1257.16H1499.74M1499.74 0.844727V63.6603M1499.74 0.844727H1542.79M1499.74 63.6603V126.476M1499.74 63.6603H1542.79M1499.74 126.476V189.291M1499.74 126.476H1542.79M1499.74 189.291V252.107M1499.74 189.291H1542.79M1499.74 252.107V314.922M1499.74 252.107H1542.79M1499.74 314.922V377.738M1499.74 314.922H1542.79M1499.74 377.738V440.554M1499.74 377.738H1542.79M1499.74 440.554V503.369M1499.74 440.554H1542.79M1499.74 503.369V566.185M1499.74 503.369H1542.79M1499.74 566.185V629M1499.74 566.185H1542.79M1499.74 629V691.816M1499.74 629H1542.79M1499.74 691.816V754.631M1499.74 691.816H1542.79M1499.74 754.631V817.447M1499.74 754.631H1542.79M1499.74 817.447V880.262M1499.74 817.447H1542.79M1499.74 880.262V943.078M1499.74 880.262H1542.79M1499.74 943.078V1005.89M1499.74 943.078H1542.79M1499.74 1005.89V1068.71M1499.74 1005.89H1542.79M1499.74 1068.71V1131.52M1499.74 1068.71H1542.79M1499.74 1131.52V1194.34M1499.74 1131.52H1542.79M1499.74 1194.34V1257.16M1499.74 1194.34H1542.79M1499.74 1257.16H1542.79M1542.79 0.844727V63.6603M1542.79 0.844727H1585.84M1542.79 63.6603V126.476M1542.79 63.6603H1585.84M1542.79 126.476V189.291M1542.79 126.476H1585.84M1542.79 189.291V252.107M1542.79 189.291H1585.84M1542.79 252.107V314.922M1542.79 252.107H1585.84M1542.79 314.922V377.738M1542.79 314.922H1585.84M1542.79 377.738V440.554M1542.79 377.738H1585.84M1542.79 440.554V503.369M1542.79 440.554H1585.84M1542.79 503.369V566.185M1542.79 503.369H1585.84M1542.79 566.185V629M1542.79 566.185H1585.84M1542.79 629V691.816M1542.79 629H1585.84M1542.79 691.816V754.631M1542.79 691.816H1585.84M1542.79 754.631V817.447M1542.79 754.631H1585.84M1542.79 817.447V880.262M1542.79 817.447H1585.84M1542.79 880.262V943.078M1542.79 880.262H1585.84M1542.79 943.078V1005.89M1542.79 943.078H1585.84M1542.79 1005.89V1068.71M1542.79 1005.89H1585.84M1542.79 1068.71V1131.52M1542.79 1068.71H1585.84M1542.79 1131.52V1194.34M1542.79 1131.52H1585.84M1542.79 1194.34V1257.16M1542.79 1194.34H1585.84M1542.79 1257.16H1585.84M1585.84 0.844727V63.6603M1585.84 0.844727H1628.89M1585.84 63.6603V126.476M1585.84 63.6603H1628.89M1585.84 126.476V189.291M1585.84 126.476H1628.89M1585.84 189.291V252.107M1585.84 189.291H1628.89M1585.84 252.107V314.922M1585.84 252.107H1628.89M1585.84 314.922V377.738M1585.84 314.922H1628.89M1585.84 377.738V440.554M1585.84 377.738H1628.89M1585.84 440.554V503.369M1585.84 440.554H1628.89M1585.84 503.369V566.185M1585.84 503.369H1628.89M1585.84 566.185V629M1585.84 566.185H1628.89M1585.84 629V691.816M1585.84 629H1628.89M1585.84 691.816V754.631M1585.84 691.816H1628.89M1585.84 754.631V817.447M1585.84 754.631H1628.89M1585.84 817.447V880.262M1585.84 817.447H1628.89M1585.84 880.262V943.078M1585.84 880.262H1628.89M1585.84 943.078V1005.89M1585.84 943.078H1628.89M1585.84 1005.89V1068.71M1585.84 1005.89H1628.89M1585.84 1068.71V1131.52M1585.84 1068.71H1628.89M1585.84 1131.52V1194.34M1585.84 1131.52H1628.89M1585.84 1194.34V1257.16M1585.84 1194.34H1628.89M1585.84 1257.16H1628.89M1628.89 0.844727V63.6603M1628.89 0.844727H1671.94M1628.89 63.6603V126.476M1628.89 63.6603H1671.94M1628.89 126.476V189.291M1628.89 126.476H1671.94M1628.89 189.291V252.107M1628.89 189.291H1671.94M1628.89 252.107V314.922M1628.89 252.107H1671.94M1628.89 314.922V377.738M1628.89 314.922H1671.94M1628.89 377.738V440.554M1628.89 377.738H1671.94M1628.89 440.554V503.369M1628.89 440.554H1671.94M1628.89 503.369V566.185M1628.89 503.369H1671.94M1628.89 566.185V629M1628.89 566.185H1671.94M1628.89 629V691.816M1628.89 629H1671.94M1628.89 691.816V754.631M1628.89 691.816H1671.94M1628.89 754.631V817.447M1628.89 754.631H1671.94M1628.89 817.447V880.262M1628.89 817.447H1671.94M1628.89 880.262V943.078M1628.89 880.262H1671.94M1628.89 943.078V1005.89M1628.89 943.078H1671.94M1628.89 1005.89V1068.71M1628.89 1005.89H1671.94M1628.89 1068.71V1131.52M1628.89 1068.71H1671.94M1628.89 1131.52V1194.34M1628.89 1131.52H1671.94M1628.89 1194.34V1257.16M1628.89 1194.34H1671.94M1628.89 1257.16H1671.94M1671.94 0.844727V63.6603M1671.94 0.844727H1714.99M1671.94 63.6603V126.476M1671.94 63.6603H1714.99M1671.94 126.476V189.291M1671.94 126.476H1714.99M1671.94 189.291V252.107M1671.94 189.291H1714.99M1671.94 252.107V314.922M1671.94 252.107H1714.99M1671.94 314.922V377.738M1671.94 314.922H1714.99M1671.94 377.738V440.554M1671.94 377.738H1714.99M1671.94 440.554V503.369M1671.94 440.554H1714.99M1671.94 503.369V566.185M1671.94 503.369H1714.99M1671.94 566.185V629M1671.94 566.185H1714.99M1671.94 629V691.816M1671.94 629H1714.99M1671.94 691.816V754.631M1671.94 691.816H1714.99M1671.94 754.631V817.447M1671.94 754.631H1714.99M1671.94 817.447V880.262M1671.94 817.447H1714.99M1671.94 880.262V943.078M1671.94 880.262H1714.99M1671.94 943.078V1005.89M1671.94 943.078H1714.99M1671.94 1005.89V1068.71M1671.94 1005.89H1714.99M1671.94 1068.71V1131.52M1671.94 1068.71H1714.99M1671.94 1131.52V1194.34M1671.94 1131.52H1714.99M1671.94 1194.34V1257.16M1671.94 1194.34H1714.99M1671.94 1257.16H1714.99M1714.99 0.844727V63.6603M1714.99 0.844727H1758.04M1714.99 63.6603V126.476M1714.99 63.6603H1758.04M1714.99 126.476V189.291M1714.99 126.476H1758.04M1714.99 189.291V252.107M1714.99 189.291H1758.04M1714.99 252.107V314.922M1714.99 252.107H1758.04M1714.99 314.922V377.738M1714.99 314.922H1758.04M1714.99 377.738V440.554M1714.99 377.738H1758.04M1714.99 440.554V503.369M1714.99 440.554H1758.04M1714.99 503.369V566.185M1714.99 503.369H1758.04M1714.99 566.185V629M1714.99 566.185H1758.04M1714.99 629V691.816M1714.99 629H1758.04M1714.99 691.816V754.631M1714.99 691.816H1758.04M1714.99 754.631V817.447M1714.99 754.631H1758.04M1714.99 817.447V880.262M1714.99 817.447H1758.04M1714.99 880.262V943.078M1714.99 880.262H1758.04M1714.99 943.078V1005.89M1714.99 943.078H1758.04M1714.99 1005.89V1068.71M1714.99 1005.89H1758.04M1714.99 1068.71V1131.52M1714.99 1068.71H1758.04M1714.99 1131.52V1194.34M1714.99 1131.52H1758.04M1714.99 1194.34V1257.16M1714.99 1194.34H1758.04M1714.99 1257.16H1758.04M1758.04 0.844727V63.6603M1758.04 0.844727H1801.09V63.6603M1758.04 63.6603V126.476M1758.04 63.6603H1801.09M1758.04 126.476V189.291M1758.04 126.476H1801.09M1758.04 189.291V252.107M1758.04 189.291H1801.09M1758.04 252.107V314.922M1758.04 252.107H1801.09M1758.04 314.922V377.738M1758.04 314.922H1801.09M1758.04 377.738V440.554M1758.04 377.738H1801.09M1758.04 440.554V503.369M1758.04 440.554H1801.09M1758.04 503.369V566.185M1758.04 503.369H1801.09M1758.04 566.185V629M1758.04 566.185H1801.09M1758.04 629V691.816M1758.04 629H1801.09M1758.04 691.816V754.631M1758.04 691.816H1801.09M1758.04 754.631V817.447M1758.04 754.631H1801.09M1758.04 817.447V880.262M1758.04 817.447H1801.09M1758.04 880.262V943.078M1758.04 880.262H1801.09M1758.04 943.078V1005.89M1758.04 943.078H1801.09M1758.04 1005.89V1068.71M1758.04 1005.89H1801.09M1758.04 1068.71V1131.52M1758.04 1068.71H1801.09M1758.04 1131.52V1194.34M1758.04 1131.52H1801.09M1758.04 1194.34V1257.16M1758.04 1194.34H1801.09M1758.04 1257.16H1801.09V1194.34M1801.09 63.6603V126.476M1801.09 126.476V189.291M1801.09 189.291V252.107M1801.09 252.107V314.922M1801.09 314.922V377.738M1801.09 377.738V440.554M1801.09 440.554V503.369M1801.09 503.369V566.185M1801.09 566.185V629M1801.09 629V691.816M1801.09 691.816V754.631M1801.09 754.631V817.447M1801.09 817.447V880.262M1801.09 880.262V943.078M1801.09 943.078V1005.89M1801.09 1005.89V1068.71M1801.09 1068.71V1131.52M1801.09 1131.52V1194.34" stroke="url(#paint0_radial_323_2536)" stroke-opacity="0.25" stroke-width="0.805493"/>
</g>
<defs>
<radialGradient id="paint0_radial_323_2536" cx="0" cy="0" r="1" gradientUnits="userSpaceOnUse" gradientTransform="translate(854 629) rotate(90) scale(628.156 947.085)">
<stop stop-color="white"/>
<stop offset="1" stop-color="white" stop-opacity="0"/>
</radialGradient>
</defs>
</svg>
